<svg width="1000" height="1000" viewBox="0 0 1000 1000" fill="none" xmlns="http://www.w3.org/2000/svg">
<path fill-rule="evenodd" clip-rule="evenodd" d="M568.326 429.957C568.53 429.937 568.735 429.921 568.937 429.909C570.171 429.909 616.312 451.116 631.572 455.187C632.216 455.34 632.835 455.487 633.427 455.626C632.875 455.516 632.254 455.369 631.572 455.187C616.137 451.501 586.493 443.818 573.879 438.395L581.835 450.483C586.779 457.126 605.567 470.413 641.166 470.413C671.152 470.413 690.431 463.418 699.234 458.267C700.733 457.319 702.018 456.43 703.077 455.626C702.162 456.403 700.881 457.303 699.234 458.267C686.741 466.168 659.409 478.128 624.399 478.128C585.188 478.128 528.523 456.698 505.091 445.982C487.894 437.839 447.953 420.523 430.927 418.98L400.617 469.127C397.392 473.628 392.878 482.629 400.617 482.629H374.176C376.755 481.986 385.01 475.685 397.392 455.626C401.587 448.83 410.492 434.414 421.41 416.737C399.165 410.817 345.236 410.634 298.077 455.626C308.395 437.41 349.411 400.978 430.927 400.978C450.969 368.528 473.779 331.944 488.324 308.398L568.326 429.957ZM490.258 417.051C503.371 423.909 532.306 438.267 543.141 440.839C542.496 436.339 539.916 431.195 536.047 425.409C530.243 423.48 512.959 419.108 490.258 417.051ZM442.535 401.621C470.395 401.621 512.615 412.336 530.243 417.694L481.23 337.972L442.535 401.621Z" fill="#E8CBA0"/>
<path d="M296.923 691.475C303.692 691.575 310.462 691.67 317.231 691.76C378.154 692.57 439.077 692.975 500 692.975C560.923 692.975 621.846 692.57 682.769 691.76C689.538 691.67 696.308 691.575 703.077 691.475C696.308 691.375 689.538 691.28 682.769 691.19C621.846 690.38 560.923 689.975 500 689.975C439.077 689.975 378.154 690.38 317.231 691.19C310.462 691.28 303.692 691.375 296.923 691.475Z" fill="#E8CBA0"/>
<path d="M163.146 625.396H155L201.696 545.477H209.988L256.538 625.396H240.973L228.026 603.133H176.239L163.146 625.396ZM178.712 598.794H225.408L202.132 559.063L178.712 598.794Z" fill="#E8CBA0"/>
<path d="M295.769 624.1V544.181H308.288V618.734H358.853V624.1H295.769Z" fill="#E8CBA0"/>
<path d="M399.038 624.85V544.931H433.771C444.08 544.931 452.426 547.214 458.808 551.553C465.067 555.891 468.258 561.714 468.258 568.907C468.258 576.214 465.067 582.036 458.808 586.375C452.426 590.827 444.203 592.997 433.894 592.997H411.557V624.85H399.038ZM411.557 587.631H432.789C439.417 587.631 444.817 585.918 448.99 582.493C453.04 579.068 455.126 574.615 455.126 568.907C455.126 563.312 453.04 558.86 448.99 555.435C444.94 552.01 439.539 550.297 432.912 550.297H411.557V587.631Z" fill="#E8CBA0"/>
<path d="M575.64 623.753H510.962V543.834H575.64V549.2H523.48V580.254H568.768V585.62H523.48V618.387H575.64V623.753ZM539.558 534.814L553.304 516.09L560.299 521L542.503 536.641L539.558 534.814Z" fill="#E8CBA0"/>
<path d="M614.966 585.437C614.966 573.22 619.717 563.402 629.515 555.867C639.164 548.445 651.931 544.678 667.964 544.678C683.7 544.678 696.467 548.445 706.265 555.981C716.063 563.516 720.962 573.335 720.962 585.437C720.962 597.653 716.063 607.471 706.265 615.007C696.467 622.542 683.7 626.195 667.964 626.195C651.931 626.195 639.164 622.542 629.515 615.007C619.717 607.586 614.966 597.767 614.966 585.437ZM630.702 585.437C630.702 596.397 634.117 605.188 640.946 611.81C647.774 618.546 656.682 621.857 667.964 621.857C679.098 621.857 688.154 618.546 694.982 611.81C701.811 605.188 705.226 596.397 705.226 585.437C705.226 574.476 701.811 565.685 694.982 559.063C688.154 552.441 679.098 549.016 667.964 549.016C656.682 549.016 647.774 552.441 640.946 559.063C634.117 565.685 630.702 574.476 630.702 585.437Z" fill="#E8CBA0"/>
<path d="M767.456 625.396H760.518V545.477H767.456L837.926 610.326V545.477H845V625.396H837.926L767.456 560.433V625.396Z" fill="#E8CBA0"/>
<path d="M273.043 835V798.609H287.287C291.446 798.609 294.825 799.597 297.425 801.52C300.024 803.444 301.324 805.991 301.324 809.111C301.324 811.658 300.44 813.789 298.776 815.453C297.061 817.169 294.721 818.312 291.758 818.884L302.207 835H297.84L287.599 819.3H287.339H276.994V835H273.043ZM276.994 817.376H286.975C290.094 817.376 292.59 816.649 294.461 815.193C296.333 813.737 297.269 811.71 297.269 809.111C297.269 806.563 296.281 804.484 294.409 802.924C292.538 801.365 290.042 800.533 286.975 800.533H276.994V817.376ZM349.871 835H322.682V798.609H349.871V800.533H326.633V815.401H346.908V817.324H326.633V833.076H349.871V835ZM392.978 826.526C392.978 825.382 392.666 824.395 392.042 823.459C391.418 822.575 390.482 821.795 389.234 821.12C387.987 820.496 386.895 819.976 385.959 819.612C384.972 819.248 383.724 818.832 382.164 818.364C380.397 817.844 378.941 817.428 377.797 817.013C376.602 816.597 375.354 816.077 374.054 815.453C372.703 814.829 371.663 814.153 370.883 813.425C370.051 812.75 369.428 811.918 368.908 810.93C368.388 809.994 368.128 808.903 368.128 807.707C368.128 804.952 369.376 802.716 371.923 800.949C374.418 799.181 377.745 798.297 381.8 798.297C385.959 798.297 389.338 799.285 391.834 801.157C394.329 803.028 395.577 805.523 395.577 808.643H391.626C391.626 806.043 390.69 803.912 388.819 802.3C386.947 800.741 384.452 799.909 381.332 799.909C378.473 799.909 376.134 800.585 374.366 801.832C372.547 803.08 371.663 804.692 371.663 806.563C371.663 807.447 371.871 808.227 372.339 808.955C372.807 809.682 373.327 810.306 373.95 810.774C374.574 811.294 375.458 811.762 376.706 812.282C377.953 812.802 378.993 813.218 379.877 813.529C380.761 813.841 382.06 814.205 383.724 814.673C385.128 815.089 386.323 815.505 387.311 815.817C388.247 816.181 389.39 816.649 390.638 817.272C391.886 817.896 392.926 818.572 393.705 819.248C394.433 819.976 395.109 820.808 395.629 821.847C396.149 822.887 396.461 824.031 396.461 825.278C396.461 828.294 395.109 830.685 392.458 832.557C389.754 834.428 386.271 835.312 381.956 835.312C377.589 835.312 374.106 834.376 371.507 832.505C368.908 830.633 367.608 828.086 367.608 824.967H371.559C371.559 827.618 372.495 829.749 374.47 831.309C376.446 832.921 379.097 833.7 382.424 833.7C385.543 833.7 388.039 833.025 390.014 831.673C391.99 830.321 392.978 828.606 392.978 826.526ZM416.985 835V798.609H420.936V835H416.985ZM443.474 835V798.609H458.446C463.957 798.609 468.428 800.273 471.859 803.6C475.238 806.927 476.954 811.346 476.954 816.805C476.954 822.315 475.238 826.682 471.859 830.009C468.428 833.336 463.957 835 458.446 835H443.474ZM447.425 833.076H458.446C462.761 833.076 466.244 831.621 468.896 828.606C471.547 825.642 472.899 821.691 472.899 816.805C472.899 811.918 471.547 808.019 468.896 805.004C466.244 802.04 462.761 800.533 458.446 800.533H447.425V833.076ZM524.872 835H497.683V798.609H524.872V800.533H501.634V815.401H521.909V817.324H501.634V833.076H524.872V835ZM547.32 835H545.24V798.609H547.32L575.133 830.009V798.609H577.212V835H575.133L547.32 803.496V835ZM617.117 798.297C621.744 798.297 625.591 799.337 628.606 801.417C631.621 803.496 633.181 806.095 633.181 809.215H629.23C629.23 806.563 628.034 804.328 625.747 802.56C623.459 800.793 620.548 799.909 617.013 799.909C612.386 799.909 608.747 801.468 606.044 804.536C603.341 807.655 601.989 811.71 601.989 816.805C601.989 821.899 603.341 826.006 606.044 829.074C608.747 832.193 612.386 833.7 617.013 833.7C620.548 833.7 623.511 832.817 625.851 830.945C628.19 829.125 629.386 826.838 629.386 824.031H633.337C633.337 827.358 631.777 830.061 628.762 832.141C625.695 834.272 621.796 835.312 617.065 835.312C611.191 835.312 606.512 833.648 603.081 830.269C599.65 826.942 597.934 822.419 597.934 816.805C597.934 811.19 599.65 806.719 603.081 803.34C606.512 800.013 611.191 798.297 617.117 798.297ZM681.202 835H654.013V798.609H681.202V800.533H657.964V815.401H678.239V817.324H657.964V833.076H681.202V835ZM724.308 826.526C724.308 825.382 723.996 824.395 723.372 823.459C722.749 822.575 721.813 821.795 720.565 821.12C719.318 820.496 718.226 819.976 717.29 819.612C716.302 819.248 715.055 818.832 713.495 818.364C711.727 817.844 710.272 817.428 709.128 817.013C707.932 816.597 706.685 816.077 705.385 815.453C704.033 814.829 702.994 814.153 702.214 813.425C701.382 812.75 700.758 811.918 700.238 810.93C699.718 809.994 699.459 808.903 699.459 807.707C699.459 804.952 700.706 802.716 703.254 800.949C705.749 799.181 709.076 798.297 713.131 798.297C717.29 798.297 720.669 799.285 723.165 801.157C725.66 803.028 726.908 805.523 726.908 808.643H722.957C722.957 806.043 722.021 803.912 720.149 802.3C718.278 800.741 715.782 799.909 712.663 799.909C709.804 799.909 707.465 800.585 705.697 801.832C703.877 803.08 702.994 804.692 702.994 806.563C702.994 807.447 703.202 808.227 703.669 808.955C704.137 809.682 704.657 810.306 705.281 810.774C705.905 811.294 706.789 811.762 708.036 812.282C709.284 812.802 710.324 813.218 711.208 813.529C712.091 813.841 713.391 814.205 715.055 814.673C716.458 815.089 717.654 815.505 718.642 815.817C719.577 816.181 720.721 816.649 721.969 817.272C723.217 817.896 724.256 818.572 725.036 819.248C725.764 819.976 726.44 820.808 726.96 821.847C727.479 822.887 727.791 824.031 727.791 825.278C727.791 828.294 726.44 830.685 723.788 832.557C721.085 834.428 717.602 835.312 713.287 835.312C708.92 835.312 705.437 834.376 702.838 832.505C700.238 830.633 698.939 828.086 698.939 824.967H702.89C702.89 827.618 703.825 829.749 705.801 831.309C707.776 832.921 710.428 833.7 713.755 833.7C716.874 833.7 719.369 833.025 721.345 831.673C723.32 830.321 724.308 828.606 724.308 826.526Z" fill="#E8CBA0"/>
</svg>
