<svg width="1000" height="1000" viewBox="0 0 1000 1000" fill="none" xmlns="http://www.w3.org/2000/svg">
<path fill-rule="evenodd" clip-rule="evenodd" d="M568.326 429.958C568.53 429.937 568.735 429.921 568.937 429.91C570.171 429.91 616.312 451.116 631.572 455.187C632.216 455.341 632.835 455.487 633.427 455.627C632.875 455.517 632.254 455.369 631.572 455.187C616.137 451.502 586.493 443.819 573.879 438.396L581.835 450.483C586.779 457.127 605.567 470.414 641.166 470.414C671.152 470.414 690.431 463.419 699.234 458.267C700.733 457.32 702.018 456.43 703.077 455.627C702.162 456.404 700.881 457.303 699.234 458.267C686.741 466.169 659.409 478.129 624.399 478.129C585.188 478.129 528.523 456.698 505.091 445.983C487.894 437.839 447.953 420.523 430.927 418.98L400.617 469.128C397.392 473.628 392.878 482.629 400.617 482.629H374.176C376.755 481.986 385.01 475.686 397.392 455.627C401.587 448.831 410.492 434.415 421.41 416.738C399.165 410.817 345.236 410.635 298.077 455.627C308.395 437.411 349.411 400.979 430.927 400.979C450.969 368.528 473.779 331.945 488.324 308.398L568.326 429.958ZM490.258 417.052C503.371 423.909 532.306 438.268 543.141 440.84C542.496 436.339 539.916 431.196 536.047 425.41C530.243 423.481 512.959 419.109 490.258 417.052ZM442.535 401.622C470.395 401.622 512.615 412.337 530.243 417.694L481.23 337.973L442.535 401.622Z" fill="#E8CBA0"/>
<path d="M296.923 691.476C303.692 691.576 310.462 691.671 317.231 691.761C378.154 692.571 439.077 692.976 500 692.976C560.923 692.976 621.846 692.571 682.769 691.761C689.538 691.671 696.308 691.576 703.077 691.476C696.308 691.376 689.538 691.281 682.769 691.191C621.846 690.381 560.923 689.976 500 689.976C439.077 689.976 378.154 690.381 317.231 691.191C310.462 691.281 303.692 691.376 296.923 691.476Z" fill="#E8CBA0"/>
<path d="M163.146 625.397H155L201.696 545.478H209.988L256.538 625.397H240.973L228.026 603.133H176.239L163.146 625.397ZM178.712 598.795H225.408L202.132 559.064L178.712 598.795Z" fill="#E8CBA0"/>
<path d="M295.769 624.1V544.181H308.288V618.734H358.853V624.1H295.769Z" fill="#E8CBA0"/>
<path d="M399.038 624.851V544.931H433.771C444.08 544.931 452.426 547.215 458.808 551.553C465.067 555.892 468.258 561.714 468.258 568.907C468.258 576.214 465.067 582.037 458.808 586.375C452.426 590.828 444.203 592.997 433.894 592.997H411.557V624.851H399.038ZM411.557 587.631H432.789C439.417 587.631 444.817 585.919 448.99 582.493C453.04 579.068 455.126 574.616 455.126 568.907C455.126 563.313 453.04 558.86 448.99 555.435C444.94 552.01 439.539 550.297 432.912 550.297H411.557V587.631Z" fill="#E8CBA0"/>
<path d="M575.64 623.753H510.962V543.834H575.64V549.2H523.48V580.254H568.768V585.62H523.48V618.387H575.64V623.753ZM539.558 534.815L553.304 516.091L560.299 521L542.503 536.641L539.558 534.815Z" fill="#E8CBA0"/>
<path d="M614.966 585.437C614.966 573.221 619.717 563.402 629.515 555.867C639.164 548.446 651.931 544.678 667.964 544.678C683.7 544.678 696.467 548.446 706.265 555.981C716.063 563.516 720.962 573.335 720.962 585.437C720.962 597.653 716.063 607.472 706.265 615.007C696.467 622.542 683.7 626.196 667.964 626.196C651.931 626.196 639.164 622.542 629.515 615.007C619.717 607.586 614.966 597.767 614.966 585.437ZM630.702 585.437C630.702 596.397 634.117 605.188 640.946 611.81C647.774 618.546 656.682 621.857 667.964 621.857C679.098 621.857 688.154 618.546 694.982 611.81C701.811 605.188 705.226 596.397 705.226 585.437C705.226 574.477 701.811 565.686 694.982 559.064C688.154 552.442 679.098 549.017 667.964 549.017C656.682 549.017 647.774 552.442 640.946 559.064C634.117 565.686 630.702 574.477 630.702 585.437Z" fill="#E8CBA0"/>
<path d="M767.456 625.397H760.518V545.478H767.456L837.926 610.326V545.478H845V625.397H837.926L767.456 560.434V625.397Z" fill="#E8CBA0"/>
<path d="M293.122 783.369C293.122 782.204 292.805 781.198 292.169 780.245C291.534 779.345 290.581 778.551 289.31 777.862C288.039 777.227 286.927 776.697 285.974 776.327C284.968 775.956 283.697 775.533 282.109 775.056C280.309 774.527 278.826 774.103 277.661 773.679C276.443 773.256 275.172 772.726 273.849 772.091C272.472 771.455 271.413 770.767 270.619 770.026C269.772 769.337 269.136 768.49 268.607 767.484C268.077 766.531 267.812 765.419 267.812 764.201C267.812 761.395 269.083 759.118 271.678 757.318C274.219 755.517 277.608 754.617 281.738 754.617C285.974 754.617 289.416 755.623 291.958 757.53C294.499 759.436 295.77 761.977 295.77 765.154H291.746C291.746 762.507 290.793 760.336 288.887 758.694C286.98 757.106 284.439 756.259 281.262 756.259C278.349 756.259 275.967 756.947 274.166 758.218C272.313 759.489 271.413 761.13 271.413 763.036C271.413 763.936 271.625 764.731 272.101 765.472C272.578 766.213 273.107 766.849 273.743 767.325C274.378 767.855 275.278 768.331 276.549 768.861C277.82 769.39 278.879 769.814 279.779 770.132C280.679 770.449 282.003 770.82 283.697 771.297C285.127 771.72 286.345 772.144 287.351 772.461C288.304 772.832 289.469 773.309 290.74 773.944C292.011 774.579 293.07 775.268 293.864 775.956C294.605 776.697 295.293 777.545 295.823 778.604C296.352 779.663 296.67 780.828 296.67 782.098C296.67 785.169 295.293 787.605 292.593 789.511C289.84 791.418 286.292 792.318 281.897 792.318C277.449 792.318 273.902 791.365 271.254 789.458C268.607 787.552 267.283 784.958 267.283 781.781H271.307C271.307 784.481 272.26 786.652 274.272 788.241C276.284 789.882 278.985 790.676 282.374 790.676C285.551 790.676 288.092 789.988 290.104 788.611C292.116 787.235 293.122 785.487 293.122 783.369ZM317.575 792V754.935H321.599V792H317.575ZM342.701 773.362C342.701 767.749 344.449 763.195 347.944 759.753C351.438 756.365 356.204 754.617 362.24 754.617C366.953 754.617 370.871 755.676 373.942 757.794C377.013 759.912 378.602 762.56 378.602 765.737H374.577C374.577 763.036 373.36 760.76 371.03 758.959C368.7 757.159 365.735 756.259 362.134 756.259C357.422 756.259 353.715 757.847 350.962 760.971C348.208 764.095 346.832 768.225 346.832 773.309C346.832 778.604 348.261 782.84 351.226 785.964C354.139 789.141 358.163 790.676 363.246 790.676C365.682 790.676 367.959 790.359 369.971 789.617C371.983 788.876 373.571 787.923 374.736 786.652V775.162H361.816V773.203H378.76V786.652C377.384 788.399 375.319 789.776 372.618 790.782C369.865 791.841 366.794 792.318 363.352 792.318C356.945 792.318 351.915 790.623 348.208 787.182C344.502 783.74 342.701 779.133 342.701 773.362ZM402.454 792H400.336V754.935H402.454L430.783 786.917V754.935H432.901V792H430.783L402.454 759.912V792ZM454.536 792H452.206L469.309 754.935H471.638L488.688 792H484.505L479.422 780.986H459.619L454.536 792ZM460.36 779.345H478.628L469.468 759.595L460.36 779.345ZM533.812 756.894H518.987V792H515.015V756.894H500.189V754.935H533.812V756.894ZM552.417 754.935H556.388V778.074C556.388 781.622 557.553 784.481 559.989 786.599C562.372 788.77 565.549 789.829 569.52 789.829C573.385 789.829 576.509 788.77 578.945 786.599C581.328 784.481 582.546 781.622 582.546 778.074V754.935H584.664V777.968C584.664 782.31 583.181 785.752 580.216 788.399C577.251 791.047 573.385 792.318 568.567 792.318C563.695 792.318 559.777 791.047 556.812 788.399C553.847 785.752 552.417 782.31 552.417 777.968V754.935ZM607.226 792V754.935H621.734C625.97 754.935 629.412 755.941 632.06 757.9C634.707 759.859 636.031 762.454 636.031 765.631C636.031 768.225 635.131 770.396 633.436 772.091C631.689 773.838 629.306 775.003 626.288 775.586L636.931 792H632.483L622.052 776.009H621.787H611.25V792H607.226ZM611.25 774.05H621.417C624.594 774.05 627.135 773.309 629.041 771.826C630.948 770.343 631.901 768.278 631.901 765.631C631.901 763.036 630.895 760.918 628.988 759.33C627.082 757.741 624.541 756.894 621.417 756.894H611.25V774.05ZM685.478 792H657.785V754.935H685.478V756.894H661.809V772.038H682.46V773.997H661.809V790.041H685.478V792ZM729.383 783.369C729.383 782.204 729.065 781.198 728.43 780.245C727.794 779.345 726.841 778.551 725.571 777.862C724.3 777.227 723.188 776.697 722.235 776.327C721.229 775.956 719.958 775.533 718.369 775.056C716.569 774.527 715.086 774.103 713.922 773.679C712.704 773.256 711.433 772.726 710.109 772.091C708.732 771.455 707.673 770.767 706.879 770.026C706.032 769.337 705.397 768.49 704.867 767.484C704.338 766.531 704.073 765.419 704.073 764.201C704.073 761.395 705.344 759.118 707.938 757.318C710.48 755.517 713.869 754.617 717.999 754.617C722.235 754.617 725.676 755.623 728.218 757.53C730.76 759.436 732.03 761.977 732.03 765.154H728.006C728.006 762.507 727.053 760.336 725.147 758.694C723.241 757.106 720.699 756.259 717.522 756.259C714.61 756.259 712.227 756.947 710.427 758.218C708.574 759.489 707.673 761.13 707.673 763.036C707.673 763.936 707.885 764.731 708.362 765.472C708.838 766.213 709.368 766.849 710.003 767.325C710.639 767.855 711.539 768.331 712.81 768.861C714.08 769.39 715.139 769.814 716.04 770.132C716.94 770.449 718.263 770.82 719.958 771.297C721.387 771.72 722.605 772.144 723.611 772.461C724.564 772.832 725.729 773.309 727 773.944C728.271 774.579 729.33 775.268 730.124 775.956C730.866 776.697 731.554 777.545 732.083 778.604C732.613 779.663 732.931 780.828 732.931 782.098C732.931 785.169 731.554 787.605 728.853 789.511C726.1 791.418 722.552 792.318 718.158 792.318C713.71 792.318 710.162 791.365 707.515 789.458C704.867 787.552 703.543 784.958 703.543 781.781H707.568C707.568 784.481 708.521 786.652 710.533 788.241C712.545 789.882 715.245 790.676 718.634 790.676C721.811 790.676 724.353 789.988 726.365 788.611C728.377 787.235 729.383 785.487 729.383 783.369Z" fill="white"/>
</svg>
