<svg width="1000" height="1000" viewBox="0 0 1000 1000" fill="none" xmlns="http://www.w3.org/2000/svg">
<path fill-rule="evenodd" clip-rule="evenodd" d="M568.326 429.957C568.53 429.937 568.735 429.921 568.937 429.909C570.171 429.909 616.312 451.116 631.572 455.187C632.216 455.34 632.835 455.487 633.427 455.626C632.875 455.516 632.254 455.369 631.572 455.187C616.137 451.501 586.493 443.818 573.879 438.395L581.835 450.483C586.779 457.126 605.567 470.413 641.166 470.413C671.152 470.413 690.431 463.418 699.234 458.267C700.733 457.319 702.018 456.43 703.077 455.626C702.162 456.403 700.881 457.303 699.234 458.267C686.741 466.168 659.409 478.128 624.399 478.128C585.188 478.128 528.523 456.698 505.091 445.982C487.894 437.839 447.953 420.523 430.927 418.98L400.617 469.127C397.392 473.628 392.878 482.629 400.617 482.629H374.176C376.755 481.986 385.01 475.685 397.392 455.626C401.587 448.83 410.492 434.414 421.41 416.737C399.165 410.817 345.236 410.634 298.077 455.626C308.395 437.41 349.411 400.978 430.927 400.978C450.969 368.528 473.779 331.944 488.324 308.398L568.326 429.957ZM490.258 417.051C503.371 423.909 532.306 438.267 543.141 440.839C542.496 436.339 539.916 431.195 536.047 425.409C530.243 423.48 512.959 419.108 490.258 417.051ZM442.535 401.621C470.395 401.621 512.615 412.336 530.243 417.694L481.23 337.972L442.535 401.621Z" fill="#E8CBA0"/>
<path d="M296.923 691.475C303.692 691.575 310.462 691.67 317.231 691.76C378.154 692.57 439.077 692.975 500 692.975C560.923 692.975 621.846 692.57 682.769 691.76C689.538 691.67 696.308 691.575 703.077 691.475C696.308 691.375 689.538 691.28 682.769 691.19C621.846 690.38 560.923 689.975 500 689.975C439.077 689.975 378.154 690.38 317.231 691.19C310.462 691.28 303.692 691.375 296.923 691.475Z" fill="#E8CBA0"/>
<path d="M163.146 625.396H155L201.696 545.477H209.988L256.538 625.396H240.973L228.026 603.133H176.239L163.146 625.396ZM178.712 598.794H225.408L202.132 559.063L178.712 598.794Z" fill="#E8CBA0"/>
<path d="M295.769 624.099V544.18H308.288V618.733H358.853V624.099H295.769Z" fill="#E8CBA0"/>
<path d="M399.038 624.85V544.931H433.771C444.08 544.931 452.426 547.214 458.808 551.553C465.067 555.891 468.258 561.714 468.258 568.906C468.258 576.213 465.067 582.036 458.808 586.374C452.426 590.827 444.203 592.996 433.894 592.996H411.557V624.85H399.038ZM411.557 587.63H432.789C439.417 587.63 444.817 585.918 448.99 582.493C453.04 579.068 455.126 574.615 455.126 568.906C455.126 563.312 453.04 558.859 448.99 555.434C444.94 552.009 439.539 550.297 432.912 550.297H411.557V587.63Z" fill="#E8CBA0"/>
<path d="M575.64 623.752H510.962V543.833H575.64V549.199H523.48V580.254H568.768V585.62H523.48V618.386H575.64V623.752ZM539.558 534.814L553.304 516.09L560.299 520.999L542.503 536.641L539.558 534.814Z" fill="#E8CBA0"/>
<path d="M614.966 585.436C614.966 573.22 619.717 563.401 629.515 555.866C639.164 548.445 651.931 544.678 667.964 544.678C683.7 544.678 696.467 548.445 706.265 555.98C716.063 563.516 720.962 573.334 720.962 585.436C720.962 597.653 716.063 607.471 706.265 615.006C696.467 622.542 683.7 626.195 667.964 626.195C651.931 626.195 639.164 622.542 629.515 615.006C619.717 607.585 614.966 597.767 614.966 585.436ZM630.702 585.436C630.702 596.397 634.117 605.188 640.946 611.81C647.774 618.546 656.682 621.857 667.964 621.857C679.098 621.857 688.154 618.546 694.982 611.81C701.811 605.188 705.226 596.397 705.226 585.436C705.226 574.476 701.811 565.685 694.982 559.063C688.154 552.441 679.098 549.016 667.964 549.016C656.682 549.016 647.774 552.441 640.946 559.063C634.117 565.685 630.702 574.476 630.702 585.436Z" fill="#E8CBA0"/>
<path d="M767.456 625.396H760.518V545.477H767.456L837.926 610.325V545.477H845V625.396H837.926L767.456 560.433V625.396Z" fill="#E8CBA0"/>
</svg>
