<svg width="1920" height="606" viewBox="0 0 1920 606" fill="none" xmlns="http://www.w3.org/2000/svg">
<path d="M713.951 355.467H702.899L766.25 248.303H777.5L840.653 355.467H819.536L801.972 325.614H731.713L713.951 355.467ZM735.068 319.797H798.419L766.842 266.521L735.068 319.797Z" fill="white"/>
<path d="M893.876 353.728V246.565H910.86V346.533H979.46V353.728H893.876Z" fill="white"/>
<path d="M1033.98 354.735V247.571H1081.1C1095.09 247.571 1106.41 250.633 1115.07 256.45C1123.56 262.268 1127.89 270.075 1127.89 279.72C1127.89 289.518 1123.56 297.325 1115.07 303.143C1106.41 309.113 1095.25 312.022 1081.27 312.022H1050.96V354.735H1033.98ZM1050.96 304.827H1079.77C1088.76 304.827 1096.08 302.531 1101.75 297.938C1107.24 293.345 1110.07 287.375 1110.07 279.72C1110.07 272.219 1107.24 266.248 1101.75 261.655C1096.25 257.063 1088.92 254.766 1079.93 254.766H1050.96V304.827Z" fill="white"/>
<path d="M1273.57 353.263H1185.82V246.1H1273.57V253.295H1202.8V294.936H1264.24V302.131H1202.8V346.068H1273.57V353.263ZM1224.62 234.005L1243.26 208.898L1252.76 215.481L1228.61 236.455L1224.62 234.005Z" fill="white"/>
<path d="M1326.92 301.885C1326.92 285.504 1333.37 272.338 1346.66 262.234C1359.75 252.284 1377.07 247.232 1398.82 247.232C1420.17 247.232 1437.49 252.284 1450.78 262.388C1464.07 272.492 1470.72 285.657 1470.72 301.885C1470.72 318.266 1464.07 331.432 1450.78 341.536C1437.49 351.64 1420.17 356.538 1398.82 356.538C1377.07 356.538 1359.75 351.64 1346.66 341.536C1333.37 331.585 1326.92 318.419 1326.92 301.885ZM1348.27 301.885C1348.27 316.582 1352.9 328.37 1362.17 337.249C1371.43 346.281 1383.51 350.721 1398.82 350.721C1413.93 350.721 1426.21 346.281 1435.48 337.249C1444.74 328.37 1449.37 316.582 1449.37 301.885C1449.37 287.188 1444.74 275.4 1435.48 266.521C1426.21 257.642 1413.93 253.049 1398.82 253.049C1383.51 253.049 1371.43 257.642 1362.17 266.521C1352.9 275.4 1348.27 287.188 1348.27 301.885Z" fill="white"/>
<path d="M1533.8 355.467H1524.39V248.303H1533.8L1629.4 335.259V248.303H1639V355.467H1629.4L1533.8 268.358V355.467Z" fill="white"/>
<path fill-rule="evenodd" clip-rule="evenodd" d="M579.617 340.397C579.842 340.375 580.068 340.357 580.29 340.345C581.65 340.345 632.469 363.285 649.276 367.689C649.985 367.855 650.667 368.014 651.319 368.165C650.711 368.046 650.027 367.886 649.276 367.689C632.276 363.702 599.627 355.391 585.734 349.525L594.496 362.601C599.941 369.787 620.635 384.161 659.842 384.161C692.869 384.161 714.103 376.594 723.798 371.021C725.448 369.996 726.864 369.034 728.03 368.165C727.022 369.005 725.612 369.978 723.798 371.021C710.038 379.569 679.935 392.507 641.375 392.507C598.189 392.507 535.779 369.324 509.972 357.732C491.031 348.923 447.04 330.191 428.288 328.522L394.905 382.77C391.353 387.638 386.381 397.375 394.905 397.375H365.783C368.624 396.679 377.716 389.864 391.353 368.165C395.974 360.813 405.782 345.218 417.806 326.096C393.306 319.691 333.91 319.494 281.969 368.165C293.334 348.459 338.508 309.048 428.288 309.048C450.363 273.945 475.485 234.37 491.504 208.898L579.617 340.397ZM493.635 326.435C508.077 333.854 539.946 349.386 551.879 352.168C551.168 347.3 548.327 341.736 544.065 335.477C537.673 333.39 518.637 328.661 493.635 326.435ZM441.074 309.744C471.758 309.744 518.258 321.335 537.673 327.131L483.691 240.891L441.074 309.744Z" fill="white"/>
</svg>
