<svg width="1920" height="606" viewBox="0 0 1920 606" fill="none" xmlns="http://www.w3.org/2000/svg">
<path d="M713.951 261.568H702.899L766.25 154.405H777.5L840.653 261.568H819.536L801.972 231.716H731.713L713.951 261.568ZM735.068 225.898H798.419L766.842 172.623L735.068 225.898Z" fill="white"/>
<path d="M893.876 259.83V152.666H910.86V252.635H979.46V259.83H893.876Z" fill="white"/>
<path d="M1033.98 260.836V153.673H1081.1C1095.09 153.673 1106.41 156.734 1115.07 162.552C1123.56 168.369 1127.89 176.177 1127.89 185.822C1127.89 195.619 1123.56 203.427 1115.07 209.245C1106.41 215.215 1095.25 218.124 1081.27 218.124H1050.96V260.836H1033.98ZM1050.96 210.929H1079.77C1088.76 210.929 1096.08 208.632 1101.75 204.039C1107.24 199.447 1110.07 193.476 1110.07 185.822C1110.07 178.32 1107.24 172.35 1101.75 167.757C1096.25 163.164 1088.92 160.868 1079.93 160.868H1050.96V210.929Z" fill="white"/>
<path d="M1273.57 259.365H1185.82V152.201H1273.57V159.396H1202.8V201.037H1264.24V208.232H1202.8V252.169H1273.57V259.365ZM1224.62 140.107L1243.26 115L1252.76 121.583L1228.61 142.556L1224.62 140.107Z" fill="white"/>
<path d="M1326.92 207.987C1326.92 191.606 1333.37 178.44 1346.66 168.336C1359.75 158.385 1377.07 153.333 1398.82 153.333C1420.17 153.333 1437.49 158.385 1450.78 168.489C1464.07 178.593 1470.72 191.759 1470.72 207.987C1470.72 224.367 1464.07 237.533 1450.78 247.637C1437.49 257.741 1420.17 262.64 1398.82 262.64C1377.07 262.64 1359.75 257.741 1346.66 247.637C1333.37 237.686 1326.92 224.52 1326.92 207.987ZM1348.27 207.987C1348.27 222.683 1352.9 234.471 1362.17 243.351C1371.43 252.383 1383.51 256.823 1398.82 256.823C1413.93 256.823 1426.21 252.383 1435.48 243.351C1444.74 234.471 1449.37 222.683 1449.37 207.987C1449.37 193.29 1444.74 181.502 1435.48 172.623C1426.21 163.743 1413.93 159.151 1398.82 159.151C1383.51 159.151 1371.43 163.743 1362.17 172.623C1352.9 181.502 1348.27 193.29 1348.27 207.987Z" fill="white"/>
<path d="M1533.8 261.568H1524.39V154.405H1533.8L1629.4 241.36V154.405H1639V261.568H1629.4L1533.8 174.46V261.568Z" fill="white"/>
<path fill-rule="evenodd" clip-rule="evenodd" d="M579.617 246.498C579.843 246.476 580.068 246.459 580.29 246.447C581.65 246.447 632.469 269.387 649.276 273.791C649.985 273.957 650.667 274.115 651.319 274.266C650.711 274.147 650.027 273.988 649.276 273.791C632.276 269.804 599.627 261.493 585.734 255.627L594.496 268.702C599.941 275.889 620.635 290.262 659.842 290.262C692.869 290.262 714.103 282.696 723.798 277.123C725.448 276.097 726.864 275.135 728.03 274.266C727.022 275.107 725.612 276.08 723.798 277.123C710.038 285.67 679.935 298.608 641.375 298.608C598.189 298.608 535.779 275.425 509.972 263.834C491.031 255.024 447.04 236.293 428.288 234.623L394.905 288.871C391.353 293.74 386.381 303.477 394.905 303.477H365.783C368.624 302.781 377.716 295.965 391.353 274.266C395.974 266.914 405.782 251.32 417.806 232.197C393.306 225.793 333.91 225.595 281.969 274.266C293.334 254.561 338.508 215.15 428.288 215.15C450.363 180.046 475.485 140.472 491.504 115L579.617 246.498ZM493.635 232.537C508.077 239.956 539.946 255.488 551.879 258.27C551.168 253.402 548.327 247.838 544.065 241.578C537.673 239.492 518.637 234.763 493.635 232.537ZM441.074 215.845C471.758 215.845 518.258 227.437 537.673 233.233L483.691 146.992L441.074 215.845Z" fill="white"/>
<path d="M623.171 363C634.352 363.191 645.533 363.372 656.714 363.543C757.342 365.087 857.97 365.859 958.599 365.859C1059.23 365.859 1159.85 365.087 1260.48 363.543C1271.66 363.372 1282.85 363.191 1294.03 363C1282.85 362.809 1271.66 362.628 1260.48 362.457C1159.85 360.913 1059.23 360.141 958.599 360.141C857.97 360.141 757.342 360.913 656.714 362.457C645.533 362.628 634.352 362.809 623.171 363Z" fill="white"/>
<path d="M686.589 473.602C686.589 472.064 686.17 470.735 685.331 469.477C684.492 468.288 683.233 467.239 681.555 466.33C679.877 465.491 678.408 464.792 677.149 464.302C675.821 463.813 674.143 463.254 672.045 462.624C669.668 461.925 667.71 461.366 666.171 460.806C664.563 460.247 662.885 459.548 661.137 458.708C659.319 457.869 657.92 456.96 656.871 455.981C655.753 455.072 654.914 453.954 654.214 452.625C653.515 451.366 653.165 449.898 653.165 448.29C653.165 444.584 654.844 441.577 658.27 439.2C661.626 436.822 666.101 435.633 671.556 435.633C677.149 435.633 681.695 436.962 685.051 439.479C688.407 441.997 690.085 445.353 690.085 449.548H684.771C684.771 446.052 683.513 443.185 680.995 441.018C678.478 438.92 675.122 437.801 670.926 437.801C667.08 437.801 663.934 438.71 661.556 440.388C659.109 442.066 657.92 444.234 657.92 446.751C657.92 447.94 658.2 448.989 658.829 449.968C659.459 450.947 660.158 451.786 660.997 452.415C661.836 453.114 663.025 453.744 664.703 454.443C666.381 455.142 667.78 455.702 668.968 456.121C670.157 456.541 671.905 457.03 674.143 457.66C676.031 458.219 677.639 458.778 678.968 459.198C680.226 459.687 681.764 460.317 683.443 461.156C685.121 461.995 686.519 462.904 687.568 463.813C688.547 464.792 689.456 465.911 690.155 467.309C690.855 468.708 691.274 470.246 691.274 471.924C691.274 475.98 689.456 479.196 685.89 481.714C682.254 484.231 677.569 485.42 671.765 485.42C665.892 485.42 661.207 484.161 657.711 481.644C654.214 479.126 652.466 475.7 652.466 471.505H657.78C657.78 475.071 659.039 477.938 661.696 480.035C664.353 482.203 667.919 483.252 672.395 483.252C676.59 483.252 679.946 482.343 682.604 480.525C685.261 478.707 686.589 476.399 686.589 473.602ZM718.881 485V436.053H724.195V485H718.881ZM752.062 460.387C752.062 452.975 754.369 446.961 758.985 442.416C763.6 437.941 769.893 435.633 777.864 435.633C784.087 435.633 789.262 437.032 793.317 439.829C797.373 442.626 799.471 446.122 799.471 450.318H794.156C794.156 446.751 792.548 443.745 789.472 441.367C786.395 438.99 782.479 437.801 777.724 437.801C771.501 437.801 766.606 439.899 762.97 444.024C759.334 448.15 757.516 453.604 757.516 460.317C757.516 467.309 759.404 472.903 763.32 477.029C767.166 481.224 772.48 483.252 779.193 483.252C782.409 483.252 785.416 482.832 788.073 481.853C790.73 480.874 792.828 479.616 794.366 477.938V462.764H777.305V460.177H799.68V477.938C797.862 480.245 795.135 482.063 791.569 483.392C787.933 484.79 783.878 485.42 779.333 485.42C770.872 485.42 764.229 483.182 759.334 478.637C754.439 474.092 752.062 468.008 752.062 460.387ZM830.97 485H828.173V436.053H830.97L868.38 478.287V436.053H871.177V485H868.38L830.97 442.626V485ZM899.747 485H896.671L919.256 436.053H922.333L944.848 485H939.324L932.612 470.456H906.46L899.747 485ZM907.439 468.288H931.563L919.466 442.206L907.439 468.288ZM1004.44 438.64H984.859V485H979.615V438.64H960.036V436.053H1004.44V438.64ZM1029.01 436.053H1034.25V466.61C1034.25 471.295 1035.79 475.071 1039.01 477.868C1042.15 480.735 1046.35 482.133 1051.59 482.133C1056.7 482.133 1060.82 480.735 1064.04 477.868C1067.19 475.071 1068.79 471.295 1068.79 466.61V436.053H1071.59V466.47C1071.59 472.204 1069.63 476.749 1065.72 480.245C1061.8 483.741 1056.7 485.42 1050.33 485.42C1043.9 485.42 1038.73 483.741 1034.81 480.245C1030.89 476.749 1029.01 472.204 1029.01 466.47V436.053ZM1101.39 485V436.053H1120.55C1126.14 436.053 1130.68 437.381 1134.18 439.969C1137.68 442.556 1139.43 445.982 1139.43 450.178C1139.43 453.604 1138.24 456.471 1136 458.708C1133.69 461.016 1130.54 462.554 1126.56 463.323L1140.61 485H1134.74L1120.97 463.883H1120.62H1106.7V485H1101.39ZM1106.7 461.296H1120.13C1124.32 461.296 1127.68 460.317 1130.2 458.359C1132.71 456.401 1133.97 453.674 1133.97 450.178C1133.97 446.751 1132.64 443.954 1130.13 441.857C1127.61 439.759 1124.25 438.64 1120.13 438.64H1106.7V461.296ZM1204.72 485H1168.15V436.053H1204.72V438.64H1173.47V458.639H1200.74V461.226H1173.47V482.413H1204.72V485ZM1262.7 473.602C1262.7 472.064 1262.28 470.735 1261.44 469.477C1260.61 468.288 1259.35 467.239 1257.67 466.33C1255.99 465.491 1254.52 464.792 1253.26 464.302C1251.94 463.813 1250.26 463.254 1248.16 462.624C1245.78 461.925 1243.82 461.366 1242.29 460.806C1240.68 460.247 1239 459.548 1237.25 458.708C1235.43 457.869 1234.03 456.96 1232.99 455.981C1231.87 455.072 1231.03 453.954 1230.33 452.625C1229.63 451.366 1229.28 449.898 1229.28 448.29C1229.28 444.584 1230.96 441.577 1234.38 439.2C1237.74 436.822 1242.22 435.633 1247.67 435.633C1253.26 435.633 1257.81 436.962 1261.17 439.479C1264.52 441.997 1266.2 445.353 1266.2 449.548H1260.89C1260.89 446.052 1259.63 443.185 1257.11 441.018C1254.59 438.92 1251.24 437.801 1247.04 437.801C1243.19 437.801 1240.05 438.71 1237.67 440.388C1235.22 442.066 1234.03 444.234 1234.03 446.751C1234.03 447.94 1234.31 448.989 1234.94 449.968C1235.57 450.947 1236.27 451.786 1237.11 452.415C1237.95 453.114 1239.14 453.744 1240.82 454.443C1242.5 455.142 1243.89 455.702 1245.08 456.121C1246.27 456.541 1248.02 457.03 1250.26 457.66C1252.14 458.219 1253.75 458.778 1255.08 459.198C1256.34 459.687 1257.88 460.317 1259.56 461.156C1261.23 461.995 1262.63 462.904 1263.68 463.813C1264.66 464.792 1265.57 465.911 1266.27 467.309C1266.97 468.708 1267.39 470.246 1267.39 471.924C1267.39 475.98 1265.57 479.196 1262 481.714C1258.37 484.231 1253.68 485.42 1247.88 485.42C1242.01 485.42 1237.32 484.161 1233.82 481.644C1230.33 479.126 1228.58 475.7 1228.58 471.505H1233.89C1233.89 475.071 1235.15 477.938 1237.81 480.035C1240.47 482.203 1244.03 483.252 1248.51 483.252C1252.7 483.252 1256.06 482.343 1258.72 480.525C1261.37 478.707 1262.7 476.399 1262.7 473.602Z" fill="white"/>
</svg>
