<svg width="1920" height="606" viewBox="0 0 1920 606" fill="none" xmlns="http://www.w3.org/2000/svg">
<path d="M713.951 261.568H702.899L766.25 154.405H777.5L840.653 261.568H819.536L801.972 231.716H731.713L713.951 261.568ZM735.068 225.898H798.419L766.842 172.623L735.068 225.898Z" fill="#E8CBA0"/>
<path d="M893.876 259.83V152.666H910.86V252.635H979.46V259.83H893.876Z" fill="#E8CBA0"/>
<path d="M1033.98 260.836V153.673H1081.1C1095.09 153.673 1106.41 156.734 1115.07 162.552C1123.56 168.369 1127.89 176.177 1127.89 185.822C1127.89 195.619 1123.56 203.427 1115.07 209.245C1106.41 215.215 1095.25 218.124 1081.27 218.124H1050.96V260.836H1033.98ZM1050.96 210.929H1079.77C1088.76 210.929 1096.08 208.632 1101.75 204.039C1107.24 199.447 1110.07 193.476 1110.07 185.822C1110.07 178.32 1107.24 172.35 1101.75 167.757C1096.25 163.164 1088.92 160.868 1079.93 160.868H1050.96V210.929Z" fill="#E8CBA0"/>
<path d="M1273.57 259.365H1185.82V152.201H1273.57V159.396H1202.8V201.037H1264.24V208.232H1202.8V252.169H1273.57V259.365ZM1224.62 140.107L1243.26 115L1252.76 121.583L1228.61 142.556L1224.62 140.107Z" fill="#E8CBA0"/>
<path d="M1326.92 207.987C1326.92 191.606 1333.37 178.44 1346.66 168.336C1359.75 158.385 1377.07 153.333 1398.82 153.333C1420.17 153.333 1437.49 158.385 1450.78 168.489C1464.07 178.593 1470.72 191.759 1470.72 207.987C1470.72 224.367 1464.07 237.533 1450.78 247.637C1437.49 257.741 1420.17 262.64 1398.82 262.64C1377.07 262.64 1359.75 257.741 1346.66 247.637C1333.37 237.686 1326.92 224.52 1326.92 207.987ZM1348.27 207.987C1348.27 222.683 1352.9 234.471 1362.17 243.351C1371.43 252.383 1383.51 256.823 1398.82 256.823C1413.93 256.823 1426.21 252.383 1435.48 243.351C1444.74 234.471 1449.37 222.683 1449.37 207.987C1449.37 193.29 1444.74 181.502 1435.48 172.623C1426.21 163.743 1413.93 159.151 1398.82 159.151C1383.51 159.151 1371.43 163.743 1362.17 172.623C1352.9 181.502 1348.27 193.29 1348.27 207.987Z" fill="#E8CBA0"/>
<path d="M1533.8 261.568H1524.39V154.405H1533.8L1629.4 241.36V154.405H1639V261.568H1629.4L1533.8 174.46V261.568Z" fill="#E8CBA0"/>
<path fill-rule="evenodd" clip-rule="evenodd" d="M579.617 246.498C579.843 246.476 580.068 246.459 580.29 246.447C581.65 246.447 632.469 269.387 649.276 273.791C649.985 273.957 650.667 274.115 651.319 274.266C650.711 274.147 650.027 273.988 649.276 273.791C632.276 269.804 599.627 261.493 585.734 255.627L594.496 268.702C599.942 275.889 620.635 290.262 659.843 290.262C692.869 290.262 714.103 282.696 723.798 277.123C725.448 276.097 726.864 275.135 728.03 274.266C727.022 275.107 725.612 276.08 723.798 277.123C710.038 285.67 679.935 298.608 641.375 298.608C598.19 298.608 535.779 275.425 509.972 263.834C491.031 255.024 447.04 236.293 428.288 234.623L394.905 288.871C391.353 293.74 386.381 303.477 394.905 303.477H365.783C368.624 302.781 377.716 295.965 391.353 274.266C395.974 266.914 405.782 251.32 417.806 232.197C393.307 225.793 333.91 225.595 281.969 274.266C293.334 254.561 338.508 215.15 428.288 215.15C450.363 180.046 475.485 140.472 491.504 115L579.617 246.498ZM493.635 232.537C508.078 239.956 539.946 255.488 551.879 258.27C551.168 253.402 548.327 247.838 544.066 241.578C537.673 239.492 518.637 234.763 493.635 232.537ZM441.074 215.845C471.758 215.845 518.258 227.437 537.673 233.233L483.691 146.992L441.074 215.845Z" fill="#E8CBA0"/>
<path d="M620.262 364C631.548 364.192 642.833 364.375 654.119 364.548C755.691 366.106 857.264 366.886 958.836 366.886C1060.41 366.886 1161.98 366.106 1263.55 364.548C1274.84 364.375 1286.12 364.192 1297.41 364C1286.12 363.808 1274.84 363.625 1263.55 363.452C1161.98 361.894 1060.41 361.114 958.836 361.114C857.264 361.114 755.691 361.894 654.119 363.452C642.833 363.625 631.548 363.808 620.262 364Z" fill="#E8CBA0"/>
<path d="M597.316 499V440.714H620.131C626.792 440.714 632.205 442.296 636.368 445.377C640.531 448.457 642.613 452.537 642.613 457.533C642.613 461.613 641.197 465.027 638.533 467.692C635.785 470.44 632.038 472.272 627.292 473.187L644.028 499H637.034L620.631 473.854H620.214H603.644V499H597.316ZM603.644 470.773H619.631C624.627 470.773 628.624 469.607 631.622 467.276C634.619 464.944 636.118 461.697 636.118 457.533C636.118 453.453 634.536 450.123 631.538 447.625C628.541 445.127 624.544 443.795 619.631 443.795H603.644V470.773ZM720.37 499H676.822V440.714H720.37V443.795H683.15V467.609H715.624V470.69H683.15V495.919H720.37V499ZM789.413 485.428C789.413 483.596 788.913 482.014 787.914 480.515C786.915 479.099 785.416 477.85 783.418 476.768C781.419 475.769 779.671 474.936 778.172 474.353C776.59 473.77 774.592 473.104 772.094 472.355C769.263 471.522 766.931 470.856 765.099 470.19C763.184 469.524 761.186 468.691 759.104 467.692C756.939 466.693 755.274 465.61 754.025 464.445C752.693 463.362 751.693 462.03 750.861 460.448C750.028 458.949 749.612 457.2 749.612 455.285C749.612 450.872 751.61 447.292 755.69 444.461C759.687 441.63 765.016 440.214 771.511 440.214C778.172 440.214 783.584 441.796 787.581 444.794C791.578 447.791 793.576 451.788 793.576 456.784H787.248C787.248 452.621 785.749 449.207 782.752 446.626C779.754 444.128 775.757 442.795 770.761 442.795C766.182 442.795 762.435 443.878 759.604 445.876C756.689 447.875 755.274 450.456 755.274 453.453C755.274 454.869 755.607 456.118 756.356 457.284C757.106 458.449 757.938 459.449 758.938 460.198C759.937 461.031 761.352 461.78 763.351 462.613C765.349 463.445 767.014 464.111 768.43 464.611C769.845 465.111 771.927 465.694 774.592 466.443C776.84 467.109 778.755 467.775 780.337 468.275C781.836 468.858 783.668 469.607 785.666 470.606C787.664 471.605 789.33 472.688 790.579 473.77C791.744 474.936 792.827 476.268 793.66 477.934C794.492 479.599 794.992 481.431 794.992 483.429C794.992 488.259 792.827 492.089 788.58 495.086C784.251 498.084 778.672 499.5 771.761 499.5C764.766 499.5 759.187 498.001 755.024 495.003C750.861 492.006 748.779 487.926 748.779 482.93H755.107C755.107 487.176 756.606 490.59 759.77 493.088C762.934 495.669 767.181 496.918 772.51 496.918C777.506 496.918 781.503 495.836 784.667 493.671C787.831 491.506 789.413 488.758 789.413 485.428ZM827.866 499V440.714H834.194V499H827.866ZM870.292 499V440.714H894.273C903.099 440.714 910.26 443.378 915.756 448.707C921.168 454.036 923.916 461.114 923.916 469.857C923.916 478.683 921.168 485.677 915.756 491.006C910.26 496.335 903.099 499 894.273 499H870.292ZM876.621 495.919H894.273C901.184 495.919 906.763 493.588 911.01 488.758C915.256 484.012 917.421 477.684 917.421 469.857C917.421 462.03 915.256 455.785 911.01 450.955C906.763 446.209 901.184 443.795 894.273 443.795H876.621V495.919ZM1000.67 499H957.117V440.714H1000.67V443.795H963.445V467.609H995.919V470.69H963.445V495.919H1000.67V499ZM1036.62 499H1033.29V440.714H1036.62L1081.17 491.006V440.714H1084.5V499H1081.17L1036.62 448.541V499ZM1148.41 440.214C1155.82 440.214 1161.98 441.879 1166.81 445.21C1171.64 448.541 1174.14 452.704 1174.14 457.7H1167.81C1167.81 453.453 1165.9 449.873 1162.23 447.042C1158.57 444.211 1153.91 442.795 1148.25 442.795C1140.84 442.795 1135.01 445.293 1130.68 450.206C1126.35 455.202 1124.18 461.697 1124.18 469.857C1124.18 478.017 1126.35 484.595 1130.68 489.508C1135.01 494.504 1140.84 496.918 1148.25 496.918C1153.91 496.918 1158.65 495.503 1162.4 492.505C1166.15 489.591 1168.06 485.927 1168.06 481.431H1174.39C1174.39 486.76 1171.89 491.09 1167.06 494.42C1162.15 497.834 1155.91 499.5 1148.33 499.5C1138.92 499.5 1131.43 496.835 1125.93 491.423C1120.44 486.094 1117.69 478.85 1117.69 469.857C1117.69 460.864 1120.44 453.703 1125.93 448.291C1131.43 442.962 1138.92 440.214 1148.41 440.214ZM1251.06 499H1207.51V440.714H1251.06V443.795H1213.84V467.609H1246.31V470.69H1213.84V495.919H1251.06V499ZM1320.1 485.428C1320.1 483.596 1319.6 482.014 1318.6 480.515C1317.6 479.099 1316.1 477.85 1314.1 476.768C1312.1 475.769 1310.36 474.936 1308.86 474.353C1307.28 473.77 1305.28 473.104 1302.78 472.355C1299.95 471.522 1297.62 470.856 1295.78 470.19C1293.87 469.524 1291.87 468.691 1289.79 467.692C1287.62 466.693 1285.96 465.61 1284.71 464.445C1283.38 463.362 1282.38 462.03 1281.55 460.448C1280.71 458.949 1280.3 457.2 1280.3 455.285C1280.3 450.872 1282.3 447.292 1286.38 444.461C1290.37 441.63 1295.7 440.214 1302.2 440.214C1308.86 440.214 1314.27 441.796 1318.27 444.794C1322.26 447.791 1324.26 451.788 1324.26 456.784H1317.93C1317.93 452.621 1316.43 449.207 1313.44 446.626C1310.44 444.128 1306.44 442.795 1301.45 442.795C1296.87 442.795 1293.12 443.878 1290.29 445.876C1287.37 447.875 1285.96 450.456 1285.96 453.453C1285.96 454.869 1286.29 456.118 1287.04 457.284C1287.79 458.449 1288.62 459.449 1289.62 460.198C1290.62 461.031 1292.04 461.78 1294.04 462.613C1296.03 463.445 1297.7 464.111 1299.12 464.611C1300.53 465.111 1302.61 465.694 1305.28 466.443C1307.53 467.109 1309.44 467.775 1311.02 468.275C1312.52 468.858 1314.35 469.607 1316.35 470.606C1318.35 471.605 1320.02 472.688 1321.26 473.77C1322.43 474.936 1323.51 476.268 1324.34 477.934C1325.18 479.599 1325.68 481.431 1325.68 483.429C1325.68 488.259 1323.51 492.089 1319.27 495.086C1314.94 498.084 1309.36 499.5 1302.45 499.5C1295.45 499.5 1289.87 498.001 1285.71 495.003C1281.55 492.006 1279.46 487.926 1279.46 482.93H1285.79C1285.79 487.176 1287.29 490.59 1290.46 493.088C1293.62 495.669 1297.87 496.918 1303.2 496.918C1308.19 496.918 1312.19 495.836 1315.35 493.671C1318.52 491.506 1320.1 488.758 1320.1 485.428Z" fill="#E8CBA0"/>
</svg>
